erDiagram
  Submission_Assets ||--o| Submission_Assets : "Duplicate Match Record"
  Submission_Assets ||--o{ Submission_Assets : "From field: Duplicate Match Record"
  Submission_Assets ||--o{ Submission_Assets : "Duplicate Match Records (All)"
  Submission_Assets ||--o{ Submission_Assets : "From field: Duplicate Match Records (All)"
